<svg xmlns="http://www.w3.org/2000/svg" viewBox="0 0 95.38 131.75"><defs><style>.cls-1{fill:#abdee2;}.cls-2{fill:#66c9d0;}.cls-3{fill:#47c3cc;}.cls-4{opacity:0.5;}.cls-5{fill:#7fcfd7;}</style></defs><title>DKPD Logo</title><g id="Layer_2" data-name="Layer 2"><g id="Layer_1-2" data-name="Layer 1"><polygon class="cls-1" points="61.01 24.13 68.7 22.11 39.61 0 8.93 30.74 11.32 32.21 39.86 12.85 61.01 24.13"/><path class="cls-1" d="M60.8,94.18,26.17,131.75,0,42.44l2.44-.34,42.9,24.71Z"/><polygon class="cls-1" points="60.8 94.18 77.6 123.89 91.69 60.66 60.8 94.18"/><path class="cls-2" d="M18.21,36.46c-6.59.29-12.9,1-17.93,1.74L4.63,28.08Z"/><path class="cls-3" d="M86.57,47a156.2,156.2,0,0,1-15.68.86c-8.84,0-17.66-1-24.19-3.89C35.26,38.87,15.31,40.36,2.44,42.1v0l42.9,24.74Z"/><g class="cls-4"><path class="cls-2" d="M86.57,47a156.2,156.2,0,0,1-15.68.86c-8.84,0-17.66-1-24.19-3.89-11.42-5.11-31.34-3.63-44.21-1.9h0L45.33,66.81Z"/></g><path class="cls-5" d="M95,46,91.69,60.66,60.8,94.18,45.33,66.81,86.57,47c3-.31,5.81-.67,8.3-1Z"/><path class="cls-5" d="M94.64,41.82l.74-.11h0L86.69,17.39l-18,4.72h0l-7.7,2L94.29,41.87l.36-.05"/><path class="cls-2" d="M17,35.69l1.22.77c10.71-.48,22.19.16,30.2,3.75,11.93,5.34,33.14,3.48,45.9,1.66L61,24.13h0L39.86,12.85,11.32,32.21,17,35.69"/></g></g></svg>